<mxfile host="www.draw.io" modified="2020-03-12T10:34:32.262Z" agent="Mozilla/5.0 (Macintosh; Intel Mac OS X 10_15) AppleWebKit/605.1.15 (KHTML, like Gecko) Version/13.0.2 Safari/605.1.15" etag="3fdw5GR3zA0uZeJfyJra" version="12.8.4" type="github" pages="2">
  <diagram id="C5RBs43oDa-KdzZeNtuy" name="Page-1">
    <mxGraphModel dx="687" dy="584" grid="1" gridSize="10" guides="1" tooltips="1" connect="1" arrows="1" fold="1" page="1" pageScale="1" pageWidth="827" pageHeight="1169" math="0" shadow="0">
      <root>
        <mxCell id="WIyWlLk6GJQsqaUBKTNV-0" />
        <mxCell id="WIyWlLk6GJQsqaUBKTNV-1" parent="WIyWlLk6GJQsqaUBKTNV-0" />
        <mxCell id="4GM5EZFn7FC8IjJdm806-10" style="edgeStyle=orthogonalEdgeStyle;rounded=0;orthogonalLoop=1;jettySize=auto;html=1;exitX=0.5;exitY=1;exitDx=0;exitDy=0;entryX=0.5;entryY=0;entryDx=0;entryDy=0;" edge="1" parent="WIyWlLk6GJQsqaUBKTNV-1" source="WIyWlLk6GJQsqaUBKTNV-3" target="4GM5EZFn7FC8IjJdm806-1">
          <mxGeometry relative="1" as="geometry" />
        </mxCell>
        <mxCell id="WIyWlLk6GJQsqaUBKTNV-3" value="App启动" style="rounded=1;whiteSpace=wrap;html=1;fontSize=12;glass=0;strokeWidth=1;shadow=0;" parent="WIyWlLk6GJQsqaUBKTNV-1" vertex="1">
          <mxGeometry x="294" y="70" width="120" height="40" as="geometry" />
        </mxCell>
        <mxCell id="4GM5EZFn7FC8IjJdm806-12" style="edgeStyle=orthogonalEdgeStyle;rounded=0;orthogonalLoop=1;jettySize=auto;html=1;exitX=0;exitY=0.5;exitDx=0;exitDy=0;entryX=0;entryY=0.5;entryDx=0;entryDy=0;" edge="1" parent="WIyWlLk6GJQsqaUBKTNV-1" source="WIyWlLk6GJQsqaUBKTNV-6" target="WIyWlLk6GJQsqaUBKTNV-11">
          <mxGeometry relative="1" as="geometry">
            <Array as="points">
              <mxPoint x="224" y="250" />
              <mxPoint x="224" y="670" />
            </Array>
          </mxGeometry>
        </mxCell>
        <mxCell id="4GM5EZFn7FC8IjJdm806-15" style="edgeStyle=orthogonalEdgeStyle;rounded=0;orthogonalLoop=1;jettySize=auto;html=1;exitX=1;exitY=0.5;exitDx=0;exitDy=0;entryX=0.5;entryY=0;entryDx=0;entryDy=0;" edge="1" parent="WIyWlLk6GJQsqaUBKTNV-1" source="WIyWlLk6GJQsqaUBKTNV-6" target="WIyWlLk6GJQsqaUBKTNV-10">
          <mxGeometry relative="1" as="geometry" />
        </mxCell>
        <mxCell id="WIyWlLk6GJQsqaUBKTNV-6" value="GatewaySwitch" style="rhombus;whiteSpace=wrap;html=1;shadow=0;fontFamily=Helvetica;fontSize=12;align=center;strokeWidth=1;spacing=6;spacingTop=-4;" parent="WIyWlLk6GJQsqaUBKTNV-1" vertex="1">
          <mxGeometry x="304" y="210" width="100" height="80" as="geometry" />
        </mxCell>
        <mxCell id="4GM5EZFn7FC8IjJdm806-24" style="edgeStyle=orthogonalEdgeStyle;rounded=0;orthogonalLoop=1;jettySize=auto;html=1;exitX=1;exitY=0.5;exitDx=0;exitDy=0;entryX=0.5;entryY=0;entryDx=0;entryDy=0;" edge="1" parent="WIyWlLk6GJQsqaUBKTNV-1" source="WIyWlLk6GJQsqaUBKTNV-10" target="4GM5EZFn7FC8IjJdm806-22">
          <mxGeometry relative="1" as="geometry" />
        </mxCell>
        <mxCell id="4GM5EZFn7FC8IjJdm806-26" style="edgeStyle=orthogonalEdgeStyle;rounded=0;orthogonalLoop=1;jettySize=auto;html=1;exitX=0;exitY=0.5;exitDx=0;exitDy=0;entryX=0.5;entryY=0;entryDx=0;entryDy=0;" edge="1" parent="WIyWlLk6GJQsqaUBKTNV-1" source="WIyWlLk6GJQsqaUBKTNV-10" target="4GM5EZFn7FC8IjJdm806-18">
          <mxGeometry relative="1" as="geometry" />
        </mxCell>
        <mxCell id="WIyWlLk6GJQsqaUBKTNV-10" value="当前运营网络" style="rhombus;whiteSpace=wrap;html=1;shadow=0;fontFamily=Helvetica;fontSize=12;align=center;strokeWidth=1;spacing=6;spacingTop=-4;" parent="WIyWlLk6GJQsqaUBKTNV-1" vertex="1">
          <mxGeometry x="444" y="290" width="104" height="80" as="geometry" />
        </mxCell>
        <mxCell id="WIyWlLk6GJQsqaUBKTNV-11" value="结束" style="rounded=1;whiteSpace=wrap;html=1;fontSize=12;glass=0;strokeWidth=1;shadow=0;" parent="WIyWlLk6GJQsqaUBKTNV-1" vertex="1">
          <mxGeometry x="436" y="650" width="120" height="40" as="geometry" />
        </mxCell>
        <mxCell id="4GM5EZFn7FC8IjJdm806-11" style="edgeStyle=orthogonalEdgeStyle;rounded=0;orthogonalLoop=1;jettySize=auto;html=1;exitX=0.5;exitY=1;exitDx=0;exitDy=0;entryX=0.5;entryY=0;entryDx=0;entryDy=0;" edge="1" parent="WIyWlLk6GJQsqaUBKTNV-1" source="4GM5EZFn7FC8IjJdm806-1" target="WIyWlLk6GJQsqaUBKTNV-6">
          <mxGeometry relative="1" as="geometry" />
        </mxCell>
        <mxCell id="4GM5EZFn7FC8IjJdm806-1" value="请求GatewaySwitch查询网关登录开关" style="rounded=1;whiteSpace=wrap;html=1;" vertex="1" parent="WIyWlLk6GJQsqaUBKTNV-1">
          <mxGeometry x="294" y="140" width="120" height="40" as="geometry" />
        </mxCell>
        <mxCell id="4GM5EZFn7FC8IjJdm806-13" value="关闭" style="text;html=1;strokeColor=none;fillColor=none;align=center;verticalAlign=middle;whiteSpace=wrap;rounded=0;" vertex="1" parent="WIyWlLk6GJQsqaUBKTNV-1">
          <mxGeometry x="184" y="320" width="40" height="20" as="geometry" />
        </mxCell>
        <mxCell id="4GM5EZFn7FC8IjJdm806-28" value="" style="edgeStyle=orthogonalEdgeStyle;rounded=0;orthogonalLoop=1;jettySize=auto;html=1;" edge="1" parent="WIyWlLk6GJQsqaUBKTNV-1" source="4GM5EZFn7FC8IjJdm806-18" target="4GM5EZFn7FC8IjJdm806-27">
          <mxGeometry relative="1" as="geometry" />
        </mxCell>
        <mxCell id="4GM5EZFn7FC8IjJdm806-18" value="初始化移动网关登录SDK(TYRZSDK)" style="rounded=1;whiteSpace=wrap;html=1;" vertex="1" parent="WIyWlLk6GJQsqaUBKTNV-1">
          <mxGeometry x="354" y="400" width="130" height="40" as="geometry" />
        </mxCell>
        <mxCell id="4GM5EZFn7FC8IjJdm806-32" value="" style="edgeStyle=orthogonalEdgeStyle;rounded=0;orthogonalLoop=1;jettySize=auto;html=1;" edge="1" parent="WIyWlLk6GJQsqaUBKTNV-1" source="4GM5EZFn7FC8IjJdm806-27" target="4GM5EZFn7FC8IjJdm806-31">
          <mxGeometry relative="1" as="geometry" />
        </mxCell>
        <mxCell id="4GM5EZFn7FC8IjJdm806-27" value="移动网关SDK预取号" style="rounded=1;whiteSpace=wrap;html=1;" vertex="1" parent="WIyWlLk6GJQsqaUBKTNV-1">
          <mxGeometry x="354" y="470" width="130" height="40" as="geometry" />
        </mxCell>
        <mxCell id="4GM5EZFn7FC8IjJdm806-36" style="edgeStyle=orthogonalEdgeStyle;rounded=0;orthogonalLoop=1;jettySize=auto;html=1;exitX=0.5;exitY=1;exitDx=0;exitDy=0;entryX=0.5;entryY=0;entryDx=0;entryDy=0;" edge="1" parent="WIyWlLk6GJQsqaUBKTNV-1" source="4GM5EZFn7FC8IjJdm806-31" target="WIyWlLk6GJQsqaUBKTNV-11">
          <mxGeometry relative="1" as="geometry" />
        </mxCell>
        <mxCell id="4GM5EZFn7FC8IjJdm806-31" value="记录预取号结果（是否成功）" style="rounded=1;whiteSpace=wrap;html=1;" vertex="1" parent="WIyWlLk6GJQsqaUBKTNV-1">
          <mxGeometry x="354" y="540" width="130" height="40" as="geometry" />
        </mxCell>
        <mxCell id="4GM5EZFn7FC8IjJdm806-30" value="" style="edgeStyle=orthogonalEdgeStyle;rounded=0;orthogonalLoop=1;jettySize=auto;html=1;" edge="1" parent="WIyWlLk6GJQsqaUBKTNV-1" source="4GM5EZFn7FC8IjJdm806-22" target="4GM5EZFn7FC8IjJdm806-29">
          <mxGeometry relative="1" as="geometry" />
        </mxCell>
        <mxCell id="4GM5EZFn7FC8IjJdm806-22" value="初妈化电信网关登录SDK(EAccountSDK)" style="rounded=1;whiteSpace=wrap;html=1;" vertex="1" parent="WIyWlLk6GJQsqaUBKTNV-1">
          <mxGeometry x="524" y="400" width="120" height="40" as="geometry" />
        </mxCell>
        <mxCell id="4GM5EZFn7FC8IjJdm806-34" value="" style="edgeStyle=orthogonalEdgeStyle;rounded=0;orthogonalLoop=1;jettySize=auto;html=1;" edge="1" parent="WIyWlLk6GJQsqaUBKTNV-1" source="4GM5EZFn7FC8IjJdm806-29" target="4GM5EZFn7FC8IjJdm806-33">
          <mxGeometry relative="1" as="geometry" />
        </mxCell>
        <mxCell id="4GM5EZFn7FC8IjJdm806-29" value="电信网关SDK预登录" style="rounded=1;whiteSpace=wrap;html=1;" vertex="1" parent="WIyWlLk6GJQsqaUBKTNV-1">
          <mxGeometry x="524" y="470" width="120" height="40" as="geometry" />
        </mxCell>
        <mxCell id="4GM5EZFn7FC8IjJdm806-37" style="edgeStyle=orthogonalEdgeStyle;rounded=0;orthogonalLoop=1;jettySize=auto;html=1;exitX=0.5;exitY=1;exitDx=0;exitDy=0;" edge="1" parent="WIyWlLk6GJQsqaUBKTNV-1" source="4GM5EZFn7FC8IjJdm806-33" target="WIyWlLk6GJQsqaUBKTNV-11">
          <mxGeometry relative="1" as="geometry" />
        </mxCell>
        <mxCell id="4GM5EZFn7FC8IjJdm806-33" value="记录预登录结果" style="rounded=1;whiteSpace=wrap;html=1;" vertex="1" parent="WIyWlLk6GJQsqaUBKTNV-1">
          <mxGeometry x="524" y="540" width="120" height="40" as="geometry" />
        </mxCell>
        <mxCell id="4GM5EZFn7FC8IjJdm806-23" value="移动" style="text;html=1;align=center;verticalAlign=middle;resizable=0;points=[];autosize=1;" vertex="1" parent="WIyWlLk6GJQsqaUBKTNV-1">
          <mxGeometry x="380" y="344" width="40" height="20" as="geometry" />
        </mxCell>
        <mxCell id="4GM5EZFn7FC8IjJdm806-25" value="联通/电信" style="text;html=1;align=center;verticalAlign=middle;resizable=0;points=[];autosize=1;" vertex="1" parent="WIyWlLk6GJQsqaUBKTNV-1">
          <mxGeometry x="574" y="350" width="70" height="20" as="geometry" />
        </mxCell>
        <mxCell id="4GM5EZFn7FC8IjJdm806-38" value="打开" style="text;html=1;align=center;verticalAlign=middle;resizable=0;points=[];autosize=1;" vertex="1" parent="WIyWlLk6GJQsqaUBKTNV-1">
          <mxGeometry x="454" y="230" width="40" height="20" as="geometry" />
        </mxCell>
        <mxCell id="4GM5EZFn7FC8IjJdm806-39" value="&lt;font style=&quot;font-size: 16px&quot;&gt;网关登录启动流程&lt;/font&gt;" style="text;html=1;strokeColor=none;fillColor=none;align=center;verticalAlign=middle;whiteSpace=wrap;rounded=0;" vertex="1" parent="WIyWlLk6GJQsqaUBKTNV-1">
          <mxGeometry x="339" y="730" width="145" height="40" as="geometry" />
        </mxCell>
      </root>
    </mxGraphModel>
  </diagram>
  <diagram id="if1_n2AusRhqwOlkb4qs" name="第 2 页">
    <mxGraphModel dx="687" dy="584" grid="1" gridSize="10" guides="1" tooltips="1" connect="1" arrows="1" fold="1" page="1" pageScale="1" pageWidth="827" pageHeight="1169" math="0" shadow="0">
      <root>
        <mxCell id="L0pwAKtmVoswdcQVTJo0-0" />
        <mxCell id="L0pwAKtmVoswdcQVTJo0-1" parent="L0pwAKtmVoswdcQVTJo0-0" />
      </root>
    </mxGraphModel>
  </diagram>
</mxfile>
